<svg id="Layer_1" data-name="Layer 1" xmlns="http://www.w3.org/2000/svg" viewBox="0 0 150 150"><defs><style>.cls-1{fill:none;}.cls-2{fill:#242128;}.cls-3{fill:#302a34;}.cls-4{fill:#9b81a8;}.cls-5{fill:#f5f5f4;}.cls-6{fill:#c24c4c;}</style></defs><rect id="backgroundrect" class="cls-1" width="150" height="150"/><path id="svg_2" data-name="svg 2" class="cls-2" d="M122.63,60.88A24,24,0,0,1,127,59.47c2.4-.34,4.29,1.2,4.07,3.57a39.75,39.75,0,0,1-1.75,8.05c-1.38,4.53-3.07,9-4.51,13.48-1.21,3.82-3.88,5.76-8,5.51a4.35,4.35,0,0,0-.33,1c-.45,4.18-2.2,7.79-4.21,11.47-3.87,7.07-7.19,14.43-10.74,21.67-3.34,6.82-6.42,14-12.9,18.41-6.9,4.73-14.3,5.14-22.12,1.53-7.11-3.35-10.11-9.61-12.72-16.21-3.2-8-6-16.06-10.55-23.4a25.63,25.63,0,0,0-2.13-2.73V101l4.47,2.19-.07.7-1.09-.2c.3.71.5,1.21.72,1.69,2.48,5.37,5,10.73,7.44,16.12,2.1,4.6,3.88,9.36,6.28,13.79a21.68,21.68,0,0,0,5.64,6.53c1.76,1.37,4.25,1.92,6.48,2.58,7.42,2.18,16.52-.48,21-6.59a89.87,89.87,0,0,0,7.62-12.66c2.92-5.71,5.36-11.65,8.1-17.45A30,30,0,0,1,111,102c2.82-3.59,3.64-7.73,4.13-11.9l-1.07-1.52.11-.64.9.24c4.63,1.53,7,.21,8.53-4.48,1.67-5.16,3.52-10.27,5.28-15.4.78-2.3,1.29-4.61.42-6.8-3-2.19-5.26,1-8.13.66V57.45l-3-.18v-.74l5.94-.31v.7l-1.68.34-.16,1.13v1.85l-.23.42Z"/><path id="svg_3" data-name="svg 3" class="cls-2" d="M34.49,43.16c.61-5.64,1.91-11.07,4.94-16C46.26,16.16,55.68,8.71,68.72,7a46,46,0,0,1,31.14,7,51.2,51.2,0,0,1,16.45,16c3.92,6.17,5.51,13.13,6,20.37,0,.55.06,1.11.11,1.66,0,.12.1.22.23.47,4.08-.4,8.26-1.2,12.34.36v.69a27.65,27.65,0,0,0-9.68-.54,50.28,50.28,0,0,1-8.76-.25c-.84-.07-1.63-.85-2.43-1.31a11.12,11.12,0,0,1,1.41.09c1.77.33,3.54.7,5.5,1.08,0-7.61-1.5-14.46-5.06-20.66A48.06,48.06,0,0,0,97.71,14.24C88.38,8.85,78.19,6.45,67.6,8.56c-16,3.17-26.07,13.2-30.89,28.65l-.32,1v.5l-.34,1.36L36,41.32l-.14,1.07.11,4v.78l-1.87-.33.37-.77Z"/><path id="svg_4" data-name="svg 4" class="cls-3" d="M41.11,101v.79a39.26,39.26,0,0,1-4.17-3.33,6.61,6.61,0,0,1-1.8-7,12.2,12.2,0,0,0,.42-6.69,66.06,66.06,0,0,1-.6-6.88H30.73A64.82,64.82,0,0,1,23.9,78c-3.08-.29-4.33-2.81-2.79-5.47,1.07-1.86,2.46-3.54,3.61-5.36a15.2,15.2,0,0,0,1.61-3.32c.83-2.57-.13-4.32-2.71-5.18-1.64-.54-3.3-1-4.95-1.54-3.76-1.17-4.41-2.93-2.54-6.38,1.58-2.91,3.63-4.59,7.24-4.17,2,.24,4.17-.3,6.25-.5v.7c-2.32.25-4.65.63-7,.72A7,7,0,0,0,16,54.7c1,.5,2.06,1.17,3.22,1.64s2.6.78,3.89,1.21c4.31,1.44,5.31,3.61,3.66,7.84a9,9,0,0,1-1,1.79C24.42,69.12,23,71,21.78,73s-.33,3.77,2,4.3a7.15,7.15,0,0,0,1.9.11c2.52-.13,5-.45,7.57-.43,3.55,0,5.48,2.1,5,5.58a50,50,0,0,1-2,7.88c-1.13,3.55-.57,6,2.27,8.45C39.38,99.64,40.26,100.33,41.11,101ZM36.67,84.2l.3.06V79.51h-.64Z"/><path id="svg_5" data-name="svg 5" class="cls-3" d="M124.21,56.92v-.7a23.27,23.27,0,0,1,4.57-.06c6.89,1.27,11.74,7.84,6.33,15.17-.35.47-.62,1-.92,1.49h0l-.37.06-.84.72.65.85-1.54.56-1.31-.09c-.86-.78-.1-1,.45-1.25a10,10,0,0,0,4.65-5.52c2.14-5.55-1.21-9.35-6.42-10.91C127.85,56.73,126,57,124.21,56.92Z"/><path id="svg_6" data-name="svg 6" class="cls-3" d="M135,53.56v-.69c4,1.07,6.23,6.66,5.81,10.17-.45,3.79-1.43,7.4-4.64,9.93l-.54-.54c.21-.22.41-.46.64-.66A11.72,11.72,0,0,0,135,53.56Z"/><path id="svg_7" data-name="svg 7" class="cls-4" d="M135.61,72.39l.54.54-2.49,1.46-.65-.85.84-.72.24.22.13-.28h0Z"/><path id="svg_8" data-name="svg 8" class="cls-2" d="M29.59,46.83v-.7H33.3v.69Z"/><path id="svg_9" data-name="svg 9" class="cls-5" d="M34.49,43.16l-.11,3L34,46Z"/><path id="svg_10" data-name="svg 10" class="cls-4" d="M130.81,74.9l1.31.09Z"/><path id="svg_11" data-name="svg 11" class="cls-3" d="M34.05,46l.37.11-.37.77-.74-.06v-.69Z"/><path id="svg_12" data-name="svg 12" class="cls-3" d="M122.63,60.88l-.55-.21.23-.42Z"/><path id="svg_13" data-name="svg 13" class="cls-3" d="M122.31,59.1Z"/><path id="svg_14" data-name="svg 14" class="cls-4" d="M118.28,57.27l3,.18v4.69c2.87.37,5.15-2.85,8.13-.66.87,2.19.36,4.5-.42,6.8-1.79,5.11-3.61,10.24-5.31,15.4-1.53,4.69-3.9,6-8.53,4.48l-.9-.24-.5-.36-.18.21.57.79,1.07,1.52c-.49,4.17-1.31,8.31-4.13,11.9a30,30,0,0,0-3.35,5.75c-2.74,5.8-5.18,11.74-8.1,17.45A89.87,89.87,0,0,1,92,137.84c-4.51,6.11-13.61,8.77-21,6.59-2.23-.66-4.72-1.21-6.48-2.58a21.68,21.68,0,0,1-5.64-6.53c-2.4-4.43-4.18-9.19-6.28-13.79-2.45-5.39-5-10.75-7.44-16.12-.22-.48-.42-1-.72-1.69l1.09.2.4.14,1.34.4.91.32,10.48,1.35,1.71,5.65c-.87,3.07-2,5.74-2.33,8.51-.76,5.87,1.22,11,7.39,12.18a9.78,9.78,0,0,0,9.86-3.29c5-.59,9.67-5.16,8.7-9-.77,1.4-1.48,2.6-2.1,3.85a6.58,6.58,0,0,1-5.7,3.79c1-1.85,1.91-3.7,2.87-5.54l2.94-4.2c1.72-3.75,3.54-7.46,5.08-11.29a7,7,0,0,0,.29-4.23A58.35,58.35,0,0,0,84,93.78c-.55-1.18-1.82-2-2.76-3l-.41-.13-1.5-.26-.74-.07-6.29,0c-4.65,0-8.26,1.69-10.41,6l-3,6H55.94l-11.13-2.7-.79.06h0l-.75-.37h0c-.1-.24-.14-.55-.32-.7-3.32-2.76-3.83-4.83-2.37-8.92a33.47,33.47,0,0,0,1.32-5c.9-4.84.25-8.89-4.94-10.73l-.28-4-.11-.73q-.12-7-.23-14c.59.82,1.24,1.6,1.77,2.45,1.89,3,3.45,6.3,5.7,9s6.32,1.69,7.72-1.53a23.91,23.91,0,0,0,1.36-3.83c1.18-4.8,2.27-9.61,3.43-14.41a15.73,15.73,0,0,1,.87-2.22l.55,0c.5,1.5,1.12,3,1.49,4.5,1.55,6.42,3,12.88,4.57,19.27a17,17,0,0,0,2.35,5.38c1.95,2.78,5.51,2.18,6.84-1,1-3.1,2.45-6.13,2.94-9.31,1.44-9.49,2.51-19,3.73-28.54,1-2.33.84-5.21,3.21-7.38a12.39,12.39,0,0,1,1.5,3c1.37,7.14,2.51,14.32,4,21.44a38,38,0,0,0,3.09,9.58c1.89,3.67,5.59,3.56,7.41-.11,2-3.9,3.38-8,5-12.09.37-.88.78-1.74,1.25-2.77,1.59,2.83,2.67,5.72,4.58,7.89C111.84,56.93,115.22,57,118.28,57.27ZM128.1,64c-3.44-.8-8.33,1.65-8.57,4,2.35-.85,4.17-2.92,7-2.92a48.24,48.24,0,0,0-2,5c-.44,1.53-1.32,3.14,0,4.84C125.63,71.28,126.84,67.68,128.1,64ZM74.61,87l.06-.79c-2.16-.22-4.32-.56-6.49-.64-8.3-.29-13.44,7.24-10.15,15.6.15-1.41.27-2.35.35-3.29.15-1.78.25-3.57.44-5.34a5.85,5.85,0,0,1,3-4.43c2.67-1.69,5.61-1.68,8.6-1.44Zm9.72.47c5.37,3,4,8.52,5.12,13.56,2.06-5.49-.55-12.43-5.07-13.56Zm37.1-3.12-.22-.59-2.93,1.07-.65.48-1.57-3-.68.61a3.55,3.55,0,0,0,2.45,3.12A3,3,0,0,0,121.43,84.39Z"/><path id="svg_15" data-name="svg 15" class="cls-5" d="M33.31,46.82l.74.06,1.87.33c1.67,1.47,3.66,2.71,4.93,4.47,1.41,2,2.15,4.37,3.2,6.57.6,1.25,1.23,2.49,1.85,3.73l.34-.19h0c.38,1.35,1.12.83,1.61.19a4.39,4.39,0,0,0,.7-1.87c.89-4.78,1.74-9.56,2.6-14.34.66-1.71,1.19-3.48,2-5.13,2-4.26,7.09-4.4,9.12-.44L63,41.71h0l.36.75h0a2.07,2.07,0,0,0-.18.78c1.12,5.16,2.2,10.34,3.42,15.48.66,2.77,1.56,5.48,2.36,8.21h0l.36.38h0c.62,1.09.92,1.11,1.86.11l.79-3.51c.24-2.36.48-4.71.7-7v-.38c.1-1.23.21-2.47.32-3.7.79-5.65,1.43-11.39,2.43-17a55.53,55.53,0,0,1,3-10.43c1.18-3,5.06-3.37,7.23-1a8,8,0,0,1,1.78,2.77c1.15,3.58,2.12,7.21,3.16,10.81.89,5.09,1.71,10.2,2.7,15.27a15,15,0,0,0,1.63,3.34c1.39-.75,2.11-1.36,1.66-2.61h0c.47-1.38,1-2.76,1.42-4.13A63.26,63.26,0,0,1,101.38,43c1.8-2.68,4.42-3,6.59-.74,1.46,1.53,2.2,3.73,3.33,5.59A24.06,24.06,0,0,0,113,50.09l1.16.65-.54.3.49.32v.1c.8.46,1.59,1.24,2.43,1.31a50.28,50.28,0,0,0,8.76.25,27.65,27.65,0,0,1,9.68.54,11.74,11.74,0,0,1,1.27,18.21c-.23.2-.43.44-.64.66l-1.41.39c.3-.5.57-1,.92-1.49,5.41-7.33.56-13.9-6.33-15.17a23.27,23.27,0,0,0-4.57.06l-5.94.31c-1.38-.28-2.78-.56-4.16-.86a7.58,7.58,0,0,1-6.26-6,31.71,31.71,0,0,0-2.15-4.88,11.61,11.61,0,0,0-1.7,2c-.62,1.36-1.07,2.77-1.62,4.13-1.45,3.46-2.74,7-4.46,10.33-1.43,2.77-4.09,2.78-5.59,0a25.85,25.85,0,0,1-2.55-7.06c-1.61-7.79-3-15.63-4.46-23.45a4.84,4.84,0,0,0-2.84-4C81.89,27.4,81,28,80.7,28.81,80,30.81,79.52,32.93,79,35c-.64,5-1.46,10-1.88,15a81.52,81.52,0,0,1-4.87,22.82,3.33,3.33,0,0,1-6-.57c-.36-1.1-1-2.13-1.27-3.25-.82-3.23-1.49-6.49-2.29-9.72-1.11-4.48-2.25-9-3.48-13.41a15.61,15.61,0,0,0-1.79-3.06A12.66,12.66,0,0,0,56,45.22c-.82,2.84-1.52,5.71-2.27,8.58-.9,3.45-1.6,7-2.74,10.35s-4.45,4-7,1.34A12.45,12.45,0,0,1,42.05,63c-1.58-2.91-3.07-5.87-4.59-8.81-.83-.66-1.57-1.68-2.5-1.9a33.65,33.65,0,0,0-5.67-.58c-2.69-.17-5.38-.31-8.07-.36a8.81,8.81,0,0,0-2.25.55.16.16,0,0,0-.14.14c-1.34,1.1-.57,2,.41,2.63A18.54,18.54,0,0,0,23,56.28c1.69.58,3.48.89,5.15,1.53,2.61,1,3.58,2.95,2.66,5.6a73.34,73.34,0,0,1-3,6.94,1.93,1.93,0,0,0,.39,2.7l.23.15-.18-1.69c1.18-2.59,2.34-4.84,3.24-7.19,1.35-3.51.16-6-3.31-7.4-.86-.33-1.77-.53-2.64-.84-1.8-.62-3.63-1.18-5.37-1.95-.43-.19-.55-1.08-.82-1.65l.47-.18c4.05.05,8.1.08,12.15.19a21.9,21.9,0,0,1,3.32.55V73.71H34.1L28.43,73c1.63,1.68,3.71,1.15,5.62,1.36.78.2,1.56.39,2.32.61,3.75,1.12,5.5,3.59,5,7.47a40.93,40.93,0,0,1-1.56,6.63,11,11,0,0,0-.53,6.34c.52,1.91,2.36,3.7,4,3.87h0l.75.37h0l.78.74L56,102.91h8.82l.09.62c-2.16.49-4.34,1.45-6.48,1.37-4-.14-7.91-.89-11.86-1.38l-.94-.3L41.12,101c-.85-.7-1.72-1.39-2.56-2.12-2.84-2.46-3.4-4.9-2.27-8.45a50,50,0,0,0,2-7.88c.5-3.48-1.43-5.56-5-5.58-2.53,0-5.05.3-7.57.43a7.59,7.59,0,0,1-1.84-.16c-2.34-.53-3.21-2.22-2-4.3s2.64-3.86,3.95-5.8a9,9,0,0,0,1-1.79c1.63-4.22.61-6.39-3.67-7.81-1.29-.43-2.63-.71-3.89-1.21a33,33,0,0,1-3.22-1.64,7,7,0,0,1,6.66-7.17c2.33-.09,4.66-.47,7-.72Z"/><path id="svg_16" data-name="svg 16" class="cls-3" d="M79,35c.56-2.07,1-4.18,1.74-6.19.29-.82,1.19-1.41,1.78-2.07a4.84,4.84,0,0,1,2.84,4c1.49,7.82,2.85,15.65,4.46,23.45a25.93,25.93,0,0,0,2.53,7.08c1.5,2.76,4.16,2.75,5.59,0,1.72-3.32,3-6.87,4.46-10.33.57-1.36,1-2.77,1.65-4.11a11.61,11.61,0,0,1,1.7-2,31.71,31.71,0,0,1,2.15,4.88,7.58,7.58,0,0,0,6.26,6c1.38.3,2.78.58,4.16.86v.74c-3.06-.3-6.44-.34-8.54-2.74-1.91-2.17-3-5.06-4.58-7.89-.47,1-.88,1.89-1.25,2.77-1.66,4-3.09,8.19-5,12.09-1.82,3.67-5.52,3.78-7.41.11A38.4,38.4,0,0,1,88.38,52c-1.48-7.12-2.62-14.3-4-21.44a12.39,12.39,0,0,0-1.5-3c-2.37,2.17-2.17,5.05-3.21,7.38Z"/><path id="svg_17" data-name="svg 17" class="cls-3" d="M114.14,88.56l-.57-.79.18-.21.5.36Z"/><path id="svg_18" data-name="svg 18" class="cls-3" d="M45.58,103.22l.94.3-.61.54-.4-.14C45.53,103.68,45.56,103.45,45.58,103.22Z"/><path id="svg_19" data-name="svg 19" class="cls-4" d="M114.18,50.74,113,50.09c-1-2.41-1.67-5.05-3.07-7.2-2.56-3.89-6-4.09-9-.75a15,15,0,0,0-3.74,7.71c-.23,1.37-.47,2.75-.7,4.13h0l-1.85,1.37L91.19,38c-.66-4.59-1.56-9.11-4-13.15a5.62,5.62,0,0,0-7.38-2.31c-1.94.9-2.83,2.72-3.42,4.63-2.57,8.36-3.27,17-4.11,25.67L72,55.39l-.1,1.47-.66,7-1.16,3.38-.78.06h0v-.41h-.4a13,13,0,0,0,0-2.79C67.31,57.24,65.68,50.39,64,43.47c-.09-.38-.49-.68-.75-1h0l-.36-.75h0V40.21a4.34,4.34,0,0,0-3.49-3.59c-2.23-.53-4.68-.36-6,1.8a58.25,58.25,0,0,0-3.06,7.34,12.71,12.71,0,0,0-.47,1.63q-1.09,6.27-2.15,12.53c-.16.92-.34,1.82-1.53,1.92h0V61.4c-1-2.45-1.73-5-2.91-7.33-1.65-3.27-3.43-6.56-7.43-7.59,0-1.34-.07-2.69-.11-4a10,10,0,0,1,.11-1.1c0-.36,0-.84.07-1.25a8.45,8.45,0,0,1,.34-1.36v-.5c.1-.33.21-.65.32-1,4.91-15.51,15-25.54,31-28.71,10.59-2.11,20.78.29,30.11,5.68A48,48,0,0,1,116,32C119.52,38.17,121,45,121,52.63c-2-.38-3.73-.75-5.5-1.08a11.12,11.12,0,0,0-1.41-.09v-.1l.2-.3Z"/><path id="svg_20" data-name="svg 20" class="cls-3" d="M36,46.39c4,1,5.78,4.32,7.43,7.59a75.35,75.35,0,0,1,2.91,7.41L45.9,62c-.62-1.24-1.25-2.48-1.85-3.73-1-2.2-1.79-4.62-3.2-6.57-1.27-1.76-3.26-3-4.93-4.47Z"/><path id="svg_21" data-name="svg 21" class="cls-3" d="M36,41.3a10.5,10.5,0,0,1-.11,1.1C35.88,42,35.91,41.66,36,41.3Z"/><path id="svg_22" data-name="svg 22" class="cls-3" d="M36.38,38.69c-.11.45-.22.9-.34,1.36C36.14,39.59,36.25,39.14,36.38,38.69Z"/><path id="svg_23" data-name="svg 23" class="cls-3" d="M36.71,37.21c-.11.33-.22.65-.32,1Z"/><path id="svg_24" data-name="svg 24" class="cls-4" d="M36.67,84.2l-.29-4.67H37v4.75Z"/><path id="svg_25" data-name="svg 25" class="cls-5" d="M134.22,72.8l-.13.28-.24-.22Z"/><path id="svg_26" data-name="svg 26" class="cls-2" d="M45.91,104.06l.61-.54c4,.49,7.89,1.24,11.86,1.38,2.14.08,4.32-.88,6.48-1.37l-.09-.62H56v-.69h2.93l3-6,.66.35a6.7,6.7,0,0,0,2,.65q7.92,0,15.82-.19a32.35,32.35,0,0,0,4.27-.76l-3.48-4.78.08-.74c.94,1,2.21,1.85,2.76,3a58.69,58.69,0,0,1,3.39,8.81,7,7,0,0,1-.34,4.27c-1.54,3.83-3.36,7.54-5.08,11.29l-1.15.33-.39.41h0a2.32,2.32,0,0,0-1.87,2.72s0,0,0,.08l.45.68c-1,1.84-1.91,3.69-2.87,5.54l-.9,1.32a9.77,9.77,0,0,1-9.86,3.27c-6.17-1.19-8.15-6.31-7.39-12.18.36-2.77,1.46-5.44,2.33-8.51l-1.69-5.65-10.48-1.35-.91-.32Zm34.91,12.2h0c1.7-1.24,2-3.14,2.56-4.76-2.45-3.1-5.32-4.68-9.13-4.07l-.46.22c-4.37,3.06-6.32,7.53-7.35,12.55-.17-5.29,2-9.48,6-12.85l-.16-.71a8.23,8.23,0,0,0-8,2.8A19.38,19.38,0,0,0,59,122.14c-.27,4.75,2.35,8.25,6.56,9.25s8.29-1.25,10.11-5.54c1.25-2.94,2.39-5.92,3.59-8.89l.86.68.68-.88Zm3.26-18.87c-7.3,1.73-14.64,1.29-22.11.72-.55,1.33-1.06,2.56-1.67,4a13.53,13.53,0,0,1,9.27,1.14l-7.85,2L64,107.69c3.11-2.1,6-3.83,9.48-1.09,4.44-1.65,7.62.69,10.28,3.46C88.08,105.87,86.49,101.67,84.08,97.39Zm-20.7,11.08-3.27-2.65-.45.34,1.46,5.17Z"/><path id="svg_27" data-name="svg 27" class="cls-3" d="M37.46,54.18c1.52,2.94,3,5.9,4.59,8.81a12.45,12.45,0,0,0,1.89,2.5c2.51,2.68,5.77,2.15,7-1.34s1.84-6.9,2.74-10.35c.75-2.87,1.45-5.74,2.27-8.58a12.66,12.66,0,0,1,1.43-2.41,15.86,15.86,0,0,1,1.83,3.07c1.23,4.45,2.37,8.93,3.48,13.41.8,3.23,1.47,6.49,2.29,9.72.28,1.12.91,2.15,1.27,3.25a3.34,3.34,0,0,0,6,.57H73c-1.33,3.15-4.89,3.75-6.84,1a17,17,0,0,1-2.35-5.38c-1.62-6.39-3-12.85-4.57-19.27-.37-1.53-1-3-1.49-4.5l-.55,0a15.56,15.56,0,0,0-.86,2.21c-1.16,4.8-2.25,9.61-3.43,14.41a23.91,23.91,0,0,1-1.36,3.83c-1.4,3.22-5.49,4.22-7.72,1.53s-3.81-6-5.7-9C37.64,56.76,37,56,36.4,55.16v-1Z"/><path id="svg_28" data-name="svg 28" class="cls-2" d="M37.46,54.18H36.38v1q.12,7,.23,14a5.84,5.84,0,0,0,.11.73l.28,4c5.19,1.84,5.84,5.89,4.94,10.73a33.47,33.47,0,0,1-1.32,5c-1.46,4.09-1,6.16,2.37,8.92.18.15.22.46.32.7-1.64-.17-3.48-2-4-3.87A11,11,0,0,1,39.82,89a40.13,40.13,0,0,0,1.56-6.65c.52-3.88-1.23-6.35-5-7.47-.76-.22-1.54-.41-2.32-.61v-.63H35.2V53a21.9,21.9,0,0,0-3.32-.55c-4.05-.11-8.1-.14-12.15-.19l-.8-.41a9,9,0,0,1,2.29-.5c2.69,0,5.38.19,8.07.36a33.65,33.65,0,0,1,5.67.58C35.89,52.5,36.63,53.52,37.46,54.18Z"/><path id="svg_29" data-name="svg 29" class="cls-2" d="M73,72.85h-.79A81,81,0,0,0,77.08,50c.42-5,1.24-10,1.88-15h.71c-1.22,9.51-2.29,19-3.73,28.54C75.45,66.72,74,69.75,73,72.85Z"/><path id="svg_30" data-name="svg 30" class="cls-2" d="M128.1,64c-1.26,3.72-2.47,7.32-3.68,10.92-1.28-1.7-.4-3.31,0-4.84a48.24,48.24,0,0,1,2-5c-2.8,0-4.62,2.07-7,2.92C119.77,65.61,124.66,63.16,128.1,64Z"/><path id="svg_31" data-name="svg 31" class="cls-2" d="M74.61,87l-4.18-.33c-3-.24-5.93-.25-8.6,1.44a5.85,5.85,0,0,0-3,4.43c-.19,1.77-.29,3.56-.44,5.34-.08.94-.2,1.88-.35,3.29-3.29-8.36,1.85-15.89,10.15-15.6,2.17.08,4.33.42,6.49.64Z"/><path id="svg_32" data-name="svg 32" class="cls-3" d="M84.38,87.51c4.57,1.13,7.18,8.07,5.12,13.56C88.38,96,89.7,90.47,84.38,87.51Z"/><path id="svg_33" data-name="svg 33" class="cls-3" d="M75.25,129.18l.9-1.32a6.58,6.58,0,0,0,5.7-3.79c.62-1.25,1.33-2.45,2.1-3.85C84.92,124,80.3,128.59,75.25,129.18Z"/><path id="svg_34" data-name="svg 34" class="cls-3" d="M62.54,96.58l-.66-.35c2.15-4.3,5.76-6,10.41-6v.7C68.2,91.39,64.69,92.82,62.54,96.58Z"/><path id="svg_35" data-name="svg 35" class="cls-3" d="M55.94,102.22v.69L44.8,100.39v-.8Z"/><path id="svg_36" data-name="svg 36" class="cls-2" d="M121.43,84.39a2.94,2.94,0,0,1-3.6,1.65,3.56,3.56,0,0,1-2.45-3.14l.68-.61,1.57,3,.65-.48,2.93-1.07Z"/><path id="svg_37" data-name="svg 37" class="cls-3" d="M79,122.32l-.45-.68,1.86-2.8h0l.39-.41L82,118.1Z"/><path id="svg_38" data-name="svg 38" class="cls-2" d="M72.28,90.94v-.7l6.29.05V91Z"/><path id="svg_39" data-name="svg 39" class="cls-2" d="M79.32,90.39l1.5.26-.09.69-1.41-.26Z"/><path id="svg_40" data-name="svg 40" class="cls-3" d="M79.32,90.39v.69L78.58,91v-.7Z"/><path id="svg_41" data-name="svg 41" class="cls-3" d="M36.69,69.89a4.78,4.78,0,0,0-.11-.73C36.62,69.39,36.66,69.65,36.69,69.89Z"/><path id="svg_42" data-name="svg 42" class="cls-2" d="M44.81,99.57v.82L44,99.65Z"/><path id="svg_43" data-name="svg 43" class="cls-3" d="M80.73,91.31l.09-.69.41.13c0,.24-.06.49-.08.74Z"/><path id="svg_44" data-name="svg 44" class="cls-2" d="M44,99.64l-.75-.37Z"/><path id="svg_45" data-name="svg 45" class="cls-3" d="M47.25,104.46l.91.32Z"/><path id="svg_46" data-name="svg 46" class="cls-3" d="M72.26,52.81c.84-8.64,1.54-17.31,4.11-25.67.59-1.91,1.48-3.73,3.42-4.63a5.62,5.62,0,0,1,7.38,2.31c2.46,4,3.36,8.56,4,13.15h-.69c-1-3.6-2-7.23-3.16-10.81a8,8,0,0,0-1.78-2.77,4.27,4.27,0,0,0-7.23,1,55.53,55.53,0,0,0-3,10.43c-1,5.64-1.61,11.35-2.38,17Z"/><path id="svg_47" data-name="svg 47" class="cls-3" d="M19.3,52.48c.27.57.39,1.46.82,1.65,1.74.77,3.57,1.33,5.37,1.95.87.31,1.78.51,2.64.84,3.47,1.36,4.66,3.89,3.31,7.4-.9,2.35-2.06,4.6-3.24,7.19l.18,1.69a1.94,1.94,0,0,1-.78-2.62l.12-.19a73.34,73.34,0,0,0,3-6.94c.92-2.65,0-4.6-2.66-5.6-1.67-.64-3.46-1-5.15-1.53A18.54,18.54,0,0,1,19.2,54.7c-1-.6-1.75-1.53-.41-2.63Z"/><path id="svg_48" data-name="svg 48" class="cls-3" d="M97.16,49.85a15,15,0,0,1,3.74-7.71c3-3.34,6.49-3.14,9,.75,1.4,2.15,2.07,4.79,3.07,7.2a24.88,24.88,0,0,1-1.59-2.22c-1.13-1.86-1.87-4.06-3.33-5.59-2.17-2.28-4.79-1.94-6.59.74a63.88,63.88,0,0,0-3.53,6.83Z"/><path id="svg_49" data-name="svg 49" class="cls-3" d="M50.38,45.76a59.1,59.1,0,0,1,3.14-7.37c1.27-2.16,3.72-2.33,6-1.8A4.34,4.34,0,0,1,63,40.18h-.72c-2-4-7.09-3.82-9.12.44-.79,1.65-1.32,3.42-2,5.13Z"/><path id="svg_50" data-name="svg 50" class="cls-2" d="M90.48,38h.71l3.43,17.36L96.47,54c.45,1.25-.27,1.86-1.66,2.61a15,15,0,0,1-1.63-3.34C92.19,48.16,91.38,43.05,90.48,38Z"/><path id="svg_51" data-name="svg 51" class="cls-2" d="M63.29,42.46c.26.33.66.63.75,1,1.64,6.93,3.27,13.78,4.83,20.68a13,13,0,0,1,0,2.79c-.8-2.73-1.7-5.44-2.36-8.21-1.22-5.14-2.3-10.32-3.42-15.48A1.92,1.92,0,0,1,63.29,42.46Z"/><path id="svg_52" data-name="svg 52" class="cls-2" d="M50.38,45.76h.77c-.86,4.78-1.71,9.56-2.6,14.34a4.39,4.39,0,0,1-.7,1.87c-.49.64-1.23,1.16-1.61-.19,1.19-.1,1.37-1,1.53-1.92q1.06-6.24,2.14-12.47A12.71,12.71,0,0,1,50.38,45.76Z"/><path id="svg_53" data-name="svg 53" class="cls-2" d="M71.21,64l.66-7.05h.75c-.22,2.34-.46,4.69-.7,7.05Z"/><path id="svg_54" data-name="svg 54" class="cls-3" d="M34.1,73.71v.63c-1.91-.21-4,.32-5.62-1.36Z"/><path id="svg_55" data-name="svg 55" class="cls-3" d="M71.21,64h.71c-.26,1.17-.52,2.34-.79,3.51l-1.08-.17Z"/><path id="svg_56" data-name="svg 56" class="cls-2" d="M72.26,52.81H73c-.11,1.23-.22,2.47-.32,3.7L72,55.39Z"/><path id="svg_57" data-name="svg 57" class="cls-2" d="M97.16,49.85h.72c-.47,1.37-1,2.75-1.42,4.13C96.69,52.6,96.93,51.22,97.16,49.85Z"/><path id="svg_58" data-name="svg 58" class="cls-3" d="M72,55.39l.68,1.09v.38H71.9C71.9,56.39,71.94,55.92,72,55.39Z"/><path id="svg_59" data-name="svg 59" class="cls-2" d="M70.05,67.29l1.08.17c-.94,1-1.24,1-1.86-.11Z"/><path id="svg_60" data-name="svg 60" class="cls-2" d="M62.24,40.2H63v1.51Z"/><path id="svg_61" data-name="svg 61" class="cls-2" d="M62.93,41.72l.36.75Z"/><path id="svg_62" data-name="svg 62" class="cls-2" d="M19.3,52.48,18.83,52a.16.16,0,0,1,.14-.14l.8.41Z"/><path id="svg_63" data-name="svg 63" class="cls-2" d="M114.18,50.74l.15.32-.2.3-.49-.32Z"/><path id="svg_64" data-name="svg 64" class="cls-2" d="M68.89,67h.4v.41Z"/><path id="svg_65" data-name="svg 65" class="cls-2" d="M45.9,62l.39-.63v.44Z"/><path id="svg_66" data-name="svg 66" class="cls-6" d="M74.24,107.44c3.81-.61,6.68,1,9.13,4.07-.54,1.62-.86,3.52-2.56,4.76l.79-3.06-.3-.17-2,3.92c-1.2,3-2.34,6-3.59,8.89-1.82,4.29-5.91,6.5-10.11,5.54s-6.83-4.5-6.57-9.24a19.38,19.38,0,0,1,5.25-12.7,8.23,8.23,0,0,1,8-2.8l.1.74a15.74,15.74,0,0,0-6,12.85c1-5,3-9.49,7.35-12.55Z"/><path id="svg_67" data-name="svg 67" class="cls-3" d="M84.08,97.39c2.41,4.28,4,8.48-.34,12.72-2.66-2.77-5.84-5.11-10.28-3.46-3.44-2.74-6.37-1-9.48,1.09l-2.26-2.44,7.85-2a13.53,13.53,0,0,0-9.27-1.14c.61-1.49,1.12-2.72,1.67-4C69.44,98.68,76.78,99.12,84.08,97.39Z"/><path id="svg_68" data-name="svg 68" class="cls-5" d="M80.73,91.31l.42.18,3.44,4.79a32.35,32.35,0,0,1-4.27.76c-5.27.13-10.54.18-15.82.19a6.7,6.7,0,0,1-2-.65c2.15-3.76,5.66-5.2,9.74-5.64h6.3l.74.06Z"/><path id="svg_69" data-name="svg 69" class="cls-5" d="M63.38,108.47l-2.26,2.86-1.46-5.17.45-.34Z"/><path id="svg_70" data-name="svg 70" class="cls-3" d="M79.29,117l2-3.92.3.17-.79,3.06h0v.5l-.68.88Z"/><path id="svg_71" data-name="svg 71" class="cls-4" d="M80.43,118.84l-1.86,2.8a2.35,2.35,0,0,1,1.79-2.79Z"/><path id="svg_72" data-name="svg 72" class="cls-3" d="M72.38,107.39l-.16-.71Z"/><path id="svg_73" data-name="svg 73" class="cls-3" d="M74.24,107.44l-.46.22Z"/><path id="svg_74" data-name="svg 74" class="cls-6" d="M80.83,116.76Z"/><path id="svg_75" data-name="svg 75" class="cls-4" d="M80.81,118.45l-.39.41Z"/></svg>