<svg id="Layer_1" data-name="Layer 1" xmlns="http://www.w3.org/2000/svg" viewBox="0 0 150 150"><defs><style>.cls-1{fill:#fefefe;}.cls-2{fill:#242128;}.cls-3{fill:#302a34;}.cls-4{fill:#9b81a8;}.cls-5{fill:#f5f5f4;}.cls-6{fill:#c24c4c;}</style></defs><path class="cls-1" d="M-36-40H187V183H-36ZM29.67,42.61l-.74.13H25.22c-2.08.2-4.21.74-6.25.5-3.61-.42-5.66,1.26-7.24,4.17-1.87,3.45-1.22,5.21,2.54,6.38,1.65.51,3.31,1,4.95,1.54,2.58.86,3.54,2.61,2.71,5.18a15,15,0,0,1-1.61,3.32c-1.15,1.82-2.54,3.5-3.61,5.36-1.54,2.66-.29,5.18,2.79,5.47a62.39,62.39,0,0,0,6.83-.11c1.43,0,2.87,0,4.23,0a63,63,0,0,0,.6,6.88,12.28,12.28,0,0,1-.42,6.69,6.6,6.6,0,0,0,1.8,7,37.57,37.57,0,0,0,4.17,3.33,27.82,27.82,0,0,1,2.13,2.73c4.52,7.34,7.35,15.45,10.55,23.4,2.65,6.6,5.59,12.86,12.75,16.17,7.82,3.61,15.22,3.2,22.12-1.53,6.48-4.44,9.56-11.59,12.9-18.41,3.55-7.24,6.87-14.6,10.74-21.67,2-3.68,3.76-7.29,4.21-11.47a4.35,4.35,0,0,1,.33-1c4.09.25,6.76-1.69,8-5.51,1.44-4.51,3.13-9,4.51-13.48a39.9,39.9,0,0,0,1.75-8.05c.22-2.37-1.67-3.91-4.07-3.57a25.06,25.06,0,0,0-4.35,1.41l-.32-.63V55l.23-1.14,1.68-.34c1.77.08,3.64-.19,5.28.3,5.21,1.56,8.56,5.36,6.42,10.91a9.94,9.94,0,0,1-4.65,5.52c-.55.29-1.31.47-.45,1.25l1.31.1,1.54-.57,2.49-1.46c3.21-2.53,4.19-6.14,4.64-9.93.42-3.51-1.79-9.1-5.81-10.17-4.08-1.56-8.26-.76-12.34-.36-.13-.25-.22-.35-.23-.47,0-.55-.07-1.11-.11-1.66-.48-7.24-2.07-14.2-6-20.37a51.24,51.24,0,0,0-16.45-16,46,46,0,0,0-31.14-7c-13,1.75-22.46,9.2-29.29,20.2-3,4.88-4.33,10.31-4.94,16Z"/><path class="cls-2" d="M118.25,57.49a25.06,25.06,0,0,1,4.35-1.41c2.4-.34,4.29,1.2,4.07,3.57a39.9,39.9,0,0,1-1.75,8.05c-1.38,4.53-3.07,9-4.51,13.48-1.21,3.82-3.88,5.76-8,5.51a4.35,4.35,0,0,0-.33,1c-.45,4.18-2.2,7.79-4.21,11.47-3.87,7.07-7.19,14.43-10.74,21.67-3.34,6.82-6.42,14-12.9,18.41-6.9,4.73-14.3,5.14-22.12,1.53C55,137.42,52,131.16,49.39,124.56c-3.2-8-6-16.06-10.55-23.4a27.82,27.82,0,0,0-2.13-2.73l0-.79,4.47,2.19-.07.7-1.09-.2c.3.71.5,1.21.72,1.69,2.48,5.37,5,10.73,7.44,16.12,2.1,4.6,3.88,9.36,6.28,13.79a21.54,21.54,0,0,0,5.64,6.53c1.76,1.37,4.25,1.92,6.48,2.58,7.42,2.18,16.52-.48,21-6.59a89.68,89.68,0,0,0,7.62-12.66c2.92-5.71,5.36-11.65,8.1-17.45a30.21,30.21,0,0,1,3.35-5.75c2.82-3.59,3.64-7.73,4.13-11.9l-1.07-1.52.11-.64.9.24c4.63,1.53,7,.21,8.53-4.48,1.67-5.16,3.52-10.27,5.28-15.4.78-2.3,1.29-4.61.42-6.8-3-2.19-5.26,1-8.13.66V54.06l-3-.18v-.74l5.94-.31v.7l-1.68.34L117.92,55v1.85l-.23.42Z"/><path class="cls-2" d="M30.11,39.77c.61-5.64,1.91-11.07,4.94-16,6.83-11,16.25-18.45,29.29-20.2a46,46,0,0,1,31.14,7,51.24,51.24,0,0,1,16.45,16c3.92,6.17,5.51,13.13,6,20.37,0,.55.06,1.11.11,1.66,0,.12.1.22.23.47,4.08-.4,8.26-1.2,12.34.36v.69a27.83,27.83,0,0,0-9.68-.54,49.4,49.4,0,0,1-8.76-.25c-.84-.07-1.63-.85-2.43-1.31a13.18,13.18,0,0,1,1.41.09c1.77.33,3.54.7,5.5,1.08,0-7.61-1.5-14.46-5.06-20.66A48.1,48.1,0,0,0,93.33,10.85C84,5.46,73.81,3.06,63.22,5.17c-16,3.17-26.07,13.2-30.89,28.65l-.32,1,0,.5-.34,1.36-.07,1.25L31.46,39l.11,4,0,.78-1.87-.33.37-.77Z"/><path class="cls-3" d="M36.73,97.64l0,.79a37.57,37.57,0,0,1-4.17-3.33,6.6,6.6,0,0,1-1.8-7,12.28,12.28,0,0,0,.42-6.69,63,63,0,0,1-.6-6.88c-1.36,0-2.8,0-4.23,0a62.39,62.39,0,0,1-6.83.11c-3.08-.29-4.33-2.81-2.79-5.47,1.07-1.86,2.46-3.54,3.61-5.36a15,15,0,0,0,1.61-3.32c.83-2.57-.13-4.32-2.71-5.18-1.64-.54-3.3-1-4.95-1.54-3.76-1.17-4.41-2.93-2.54-6.38,1.58-2.91,3.63-4.59,7.24-4.17,2,.24,4.17-.3,6.25-.5v.7c-2.32.25-4.65.63-7,.72a7,7,0,0,0-6.66,7.17c1,.5,2.06,1.17,3.22,1.64s2.6.78,3.89,1.21C23,55.6,24,57.77,22.35,62a9,9,0,0,1-1,1.79c-1.31,1.94-2.78,3.78-3.95,5.8s-.33,3.77,2,4.3A7.09,7.09,0,0,0,21.3,74c2.52-.13,5-.45,7.57-.43,3.55,0,5.48,2.1,5,5.58a50.11,50.11,0,0,1-2,7.88c-1.13,3.55-.57,6,2.27,8.45C35,96.25,35.88,96.94,36.73,97.64ZM32.29,80.81l.3.06V76.12l-.64,0Z"/><path class="cls-3" d="M119.83,53.53v-.7a23.32,23.32,0,0,1,4.57-.06c6.89,1.27,11.74,7.84,6.33,15.17-.35.47-.62,1-.92,1.49l0,0-.37.06-.84.72.65.85-1.54.56-1.31-.09c-.86-.78-.1-1,.45-1.25a9.94,9.94,0,0,0,4.65-5.52c2.14-5.55-1.21-9.35-6.42-10.91C123.47,53.34,121.6,53.61,119.83,53.53Z"/><path class="cls-3" d="M130.6,50.17v-.69c4,1.07,6.23,6.66,5.81,10.17-.45,3.79-1.43,7.4-4.64,9.93l-.54-.54c.21-.22.41-.46.64-.66A11.75,11.75,0,0,0,130.6,50.17Z"/><path class="cls-4" d="M131.23,69l.54.54L129.28,71l-.65-.85.84-.72.24.22.13-.28,0,0Z"/><path class="cls-2" d="M25.21,43.44v-.7h3.71v.69Z"/><path class="cls-5" d="M30.11,39.77,30,42.72l-.37-.11Z"/><path class="cls-4" d="M126.43,71.51l1.31.09Z"/><path class="cls-3" d="M29.67,42.61l.37.11-.37.77-.74-.06v-.69Z"/><path class="cls-3" d="M118.25,57.49l-.55-.21.23-.42Z"/><path class="cls-3" d="M117.93,55.71v0Z"/><path class="cls-4" d="M113.9,53.88l3,.18v4.69c2.87.37,5.15-2.85,8.13-.66.87,2.19.36,4.5-.42,6.8C122.82,70,121,75.13,119.3,80.29c-1.53,4.69-3.9,6-8.53,4.48l-.9-.24-.5-.36-.18.21.57.79,1.07,1.52c-.49,4.17-1.31,8.31-4.13,11.9a30.21,30.21,0,0,0-3.35,5.75c-2.74,5.8-5.18,11.74-8.1,17.45a89.68,89.68,0,0,1-7.62,12.66c-4.51,6.11-13.61,8.77-21,6.59-2.23-.66-4.72-1.21-6.48-2.58a21.54,21.54,0,0,1-5.64-6.53c-2.4-4.43-4.18-9.19-6.28-13.79-2.45-5.39-5-10.75-7.44-16.12-.22-.48-.42-1-.72-1.69l1.09.2.4.14,1.34.4.91.32,10.48,1.35L56,108.39c-.87,3.07-2,5.74-2.33,8.51-.76,5.87,1.22,11,7.39,12.18a9.77,9.77,0,0,0,9.86-3.29c5-.59,9.67-5.16,8.7-9-.77,1.4-1.48,2.6-2.1,3.85a6.56,6.56,0,0,1-5.7,3.79c1-1.85,1.91-3.7,2.87-5.54l2.94-4.2c1.72-3.75,3.54-7.46,5.08-11.29A7,7,0,0,0,83,99.17a59.61,59.61,0,0,0-3.39-8.78c-.55-1.18-1.82-2-2.76-3l-.41-.13L74.94,87l-.74-.07-6.29-.05c-4.65,0-8.26,1.69-10.41,6l-3,6H51.56L40.43,96.18l-.79.06h0l-.75-.37h0c-.1-.24-.14-.55-.32-.7-3.32-2.76-3.83-4.83-2.37-8.92a34.13,34.13,0,0,0,1.32-5c.9-4.84.25-8.89-4.94-10.73l-.28-4-.11-.73q-.12-7-.23-14c.59.82,1.24,1.6,1.77,2.45,1.89,3,3.45,6.3,5.7,9s6.32,1.69,7.72-1.53a23.91,23.91,0,0,0,1.36-3.83c1.18-4.8,2.27-9.61,3.43-14.41a15.47,15.47,0,0,1,.87-2.22l.55.05c.5,1.5,1.12,3,1.49,4.5,1.55,6.42,3,12.88,4.57,19.27a16.82,16.82,0,0,0,2.35,5.38c1.95,2.78,5.51,2.18,6.84-1,1-3.1,2.45-6.13,2.94-9.31,1.44-9.49,2.51-19,3.73-28.54,1-2.33.84-5.21,3.21-7.38a12.73,12.73,0,0,1,1.5,3c1.37,7.14,2.51,14.32,4,21.44a37.79,37.79,0,0,0,3.09,9.58c1.89,3.67,5.59,3.56,7.41-.11,2-3.9,3.38-8,5-12.09.37-.88.78-1.74,1.25-2.77,1.59,2.83,2.67,5.72,4.58,7.89C107.46,53.54,110.84,53.58,113.9,53.88Zm9.82,6.69c-3.44-.8-8.33,1.65-8.57,4,2.35-.85,4.17-2.92,7-2.92a48.44,48.44,0,0,0-2,5c-.44,1.53-1.32,3.14,0,4.84C121.25,67.89,122.46,64.29,123.72,60.57ZM70.23,83.65l.06-.79c-2.16-.22-4.32-.56-6.49-.64-8.3-.29-13.44,7.24-10.15,15.6.15-1.41.27-2.35.35-3.29.15-1.78.25-3.57.44-5.34a5.87,5.87,0,0,1,3-4.43c2.67-1.69,5.61-1.68,8.6-1.44Zm9.72.47c5.37,3,4,8.52,5.12,13.56C87.13,92.19,84.52,85.25,80,84.12ZM117.05,81l-.22-.59-2.93,1.07-.65.48-1.57-3-.68.61a3.54,3.54,0,0,0,2.45,3.12A2.94,2.94,0,0,0,117.05,81Z"/><path class="cls-5" d="M28.93,43.43l.74.06,1.87.33c1.67,1.47,3.66,2.71,4.93,4.47,1.41,2,2.15,4.37,3.2,6.57.6,1.25,1.23,2.49,1.85,3.73l.34-.19h0c.38,1.35,1.12.83,1.61.19a4.41,4.41,0,0,0,.7-1.87c.89-4.78,1.74-9.56,2.6-14.34.66-1.71,1.19-3.48,2-5.13,2-4.26,7.09-4.4,9.12-.44l.69,1.51h0l.36.75h0a1.92,1.92,0,0,0-.18.78c1.12,5.16,2.2,10.34,3.42,15.48.66,2.77,1.56,5.48,2.36,8.21v0l.36.38,0,0c.62,1.09.92,1.11,1.86.11l.79-3.51q.36-3.53.7-7.05l0-.38c.1-1.23.21-2.47.32-3.7C69.36,43.74,70,38,71,32.39a55.41,55.41,0,0,1,3-10.43c1.18-3,5.06-3.37,7.23-1a8.21,8.21,0,0,1,1.78,2.77c1.15,3.58,2.12,7.21,3.16,10.81.89,5.09,1.71,10.2,2.7,15.27a14.89,14.89,0,0,0,1.63,3.34c1.39-.75,2.11-1.36,1.66-2.61v0c.47-1.38,1-2.76,1.42-4.13A62.88,62.88,0,0,1,97,39.63c1.8-2.68,4.42-3,6.59-.74,1.46,1.53,2.2,3.73,3.33,5.59a22.78,22.78,0,0,0,1.69,2.22l1.16.65-.54.3.49.32,0,.1c.8.46,1.59,1.24,2.43,1.31a49.4,49.4,0,0,0,8.76.25,27.83,27.83,0,0,1,9.68.54,11.75,11.75,0,0,1,1.27,18.21c-.23.2-.43.44-.64.66l-1.41.39c.3-.5.57-1,.92-1.49,5.41-7.33.56-13.9-6.33-15.17a23.32,23.32,0,0,0-4.57.06l-5.94.31c-1.38-.28-2.78-.56-4.16-.86a7.57,7.57,0,0,1-6.26-6,33.14,33.14,0,0,0-2.15-4.88,11.89,11.89,0,0,0-1.7,2C99,44.76,98.55,46.17,98,47.53c-1.45,3.46-2.74,7-4.46,10.33-1.43,2.77-4.09,2.78-5.59,0A25.7,25.7,0,0,1,85.4,50.8c-1.61-7.79-3-15.63-4.46-23.45a4.84,4.84,0,0,0-2.84-4c-.59.66-1.49,1.25-1.78,2.07-.72,2-1.18,4.12-1.74,6.19-.64,5-1.46,10-1.88,15a81.37,81.37,0,0,1-4.87,22.82,3.33,3.33,0,0,1-6-.57c-.36-1.1-1-2.13-1.27-3.25-.82-3.23-1.49-6.49-2.29-9.72-1.11-4.48-2.25-9-3.48-13.41A16.14,16.14,0,0,0,53,39.42a12.79,12.79,0,0,0-1.43,2.41c-.82,2.84-1.52,5.71-2.27,8.58-.9,3.45-1.6,7-2.74,10.35s-4.45,4-7,1.34a12.36,12.36,0,0,1-1.89-2.5c-1.58-2.91-3.07-5.87-4.59-8.81-.83-.66-1.57-1.68-2.5-1.9a34.38,34.38,0,0,0-5.67-.58c-2.69-.17-5.38-.31-8.07-.36a9.24,9.24,0,0,0-2.25.55.17.17,0,0,0-.14.14c-1.34,1.1-.57,2,.41,2.63a18.06,18.06,0,0,0,3.71,1.62c1.69.58,3.48.89,5.15,1.53,2.61,1,3.58,2.95,2.66,5.6a72.23,72.23,0,0,1-3,6.94A1.93,1.93,0,0,0,24,69.81l-.18-1.69c1.18-2.59,2.34-4.84,3.24-7.19,1.35-3.51.16-6-3.31-7.4-.86-.33-1.77-.53-2.64-.84-1.8-.62-3.63-1.18-5.37-1.95-.43-.19-.55-1.08-.82-1.65l.47-.18c4.05.05,8.1.08,12.15.19a23.08,23.08,0,0,1,3.32.55V70.32H29.72l-5.67-.73c1.63,1.68,3.71,1.15,5.62,1.36.78.2,1.56.39,2.32.61,3.75,1.12,5.5,3.59,5,7.47a41.18,41.18,0,0,1-1.56,6.63A11,11,0,0,0,34.9,92c.52,1.91,2.36,3.7,4,3.87h0l.75.37h0l.78.74,11.15,2.54h8.82l.09.62c-2.16.49-4.34,1.45-6.48,1.37-4-.14-7.91-.89-11.86-1.38l-.94-.3-4.47-2.19c-.85-.7-1.72-1.39-2.56-2.12-2.84-2.46-3.4-4.9-2.27-8.45a50.11,50.11,0,0,0,2-7.88c.5-3.48-1.43-5.56-5-5.58-2.53,0-5.05.3-7.57.43a7.09,7.09,0,0,1-1.84-.16c-2.34-.53-3.21-2.22-2-4.3s2.64-3.86,3.95-5.8a9,9,0,0,0,1-1.79c1.63-4.22.61-6.39-3.67-7.81-1.29-.43-2.63-.71-3.89-1.21s-2.25-1.14-3.22-1.64a7,7,0,0,1,6.66-7.17c2.33-.09,4.66-.47,7-.72Z"/><path class="cls-3" d="M74.58,31.61c.56-2.07,1-4.18,1.74-6.19.29-.82,1.19-1.41,1.78-2.07a4.84,4.84,0,0,1,2.84,4C82.43,35.17,83.79,43,85.4,50.8a25.7,25.7,0,0,0,2.53,7.08c1.5,2.76,4.16,2.75,5.59,0,1.72-3.32,3-6.87,4.46-10.33.57-1.36,1-2.77,1.65-4.11a11.89,11.89,0,0,1,1.7-2,33.14,33.14,0,0,1,2.15,4.88,7.57,7.57,0,0,0,6.26,6c1.38.3,2.78.58,4.16.86v.74c-3.06-.3-6.44-.34-8.54-2.74-1.91-2.17-3-5.06-4.58-7.89-.47,1-.88,1.89-1.25,2.77-1.66,4-3.09,8.19-5,12.09-1.82,3.67-5.52,3.78-7.41.11A37.79,37.79,0,0,1,84,48.64c-1.48-7.12-2.62-14.3-4-21.44a12.73,12.73,0,0,0-1.5-3c-2.37,2.17-2.17,5.05-3.21,7.38Z"/><path class="cls-3" d="M109.76,85.17l-.57-.79.18-.21.5.36Z"/><path class="cls-3" d="M41.2,99.83l.94.3-.61.54-.4-.14C41.15,100.29,41.18,100.06,41.2,99.83Z"/><path class="cls-4" d="M109.8,47.35l-1.16-.65c-1-2.41-1.67-5.05-3.07-7.2-2.56-3.89-6-4.09-9-.75a15,15,0,0,0-3.74,7.71c-.23,1.37-.47,2.75-.7,4.13v0l-1.85,1.37L86.81,34.58c-.66-4.59-1.56-9.11-4-13.15a5.63,5.63,0,0,0-7.38-2.31c-1.94.9-2.83,2.72-3.42,4.63-2.57,8.36-3.27,17-4.11,25.67L67.59,52l-.1,1.47-.66,7.05L65.67,63.9l-.78.06,0,0,0-.41-.4,0v0a13,13,0,0,0,0-2.79C62.93,53.85,61.3,47,59.66,40.08c-.09-.38-.49-.68-.75-1h0l-.36-.75h0l0-1.51a4.35,4.35,0,0,0-3.49-3.59c-2.23-.53-4.68-.36-6,1.8A58.46,58.46,0,0,0,46,42.37,12.91,12.91,0,0,0,45.53,44q-1.1,6.27-2.15,12.53c-.16.92-.34,1.82-1.53,1.92h0c0-.14,0-.29,0-.44-1-2.45-1.73-5-2.91-7.33-1.65-3.27-3.43-6.56-7.43-7.59,0-1.34-.07-2.69-.11-4,0-.37.07-.74.11-1.1s.05-.84.07-1.25.23-.91.34-1.36l0-.5c.1-.33.21-.65.32-1C37.15,18.37,47.26,8.34,63.22,5.17,73.81,3.06,84,5.46,93.33,10.85a48.1,48.1,0,0,1,18.25,17.73c3.56,6.2,5.06,13.05,5.06,20.66-2-.38-3.73-.75-5.5-1.08a13.18,13.18,0,0,0-1.41-.09l0-.1.2-.3Z"/><path class="cls-3" d="M31.57,43c4,1,5.78,4.32,7.43,7.59C40.18,53,41,55.51,41.91,58l-.39.63c-.62-1.24-1.25-2.48-1.85-3.73-1.05-2.2-1.79-4.62-3.2-6.57-1.27-1.76-3.26-3-4.93-4.47Z"/><path class="cls-3" d="M31.57,37.91c0,.36-.07.73-.11,1.1C31.5,38.64,31.53,38.27,31.57,37.91Z"/><path class="cls-3" d="M32,35.3c-.11.45-.22.9-.34,1.36C31.76,36.2,31.87,35.75,32,35.3Z"/><path class="cls-3" d="M32.33,33.82c-.11.33-.22.65-.32,1Z"/><path class="cls-4" d="M32.29,80.81,32,76.14l.64,0v4.75Z"/><path class="cls-5" d="M129.84,69.41l-.13.28-.24-.22Z"/><path class="cls-2" d="M41.53,100.67l.61-.54c4,.49,7.89,1.24,11.86,1.38,2.14.08,4.32-.88,6.48-1.37l-.09-.62H51.57v-.69H54.5l3-6,.66.35a6.55,6.55,0,0,0,2,.65c5.28,0,10.55-.06,15.82-.19a31.22,31.22,0,0,0,4.27-.76L76.77,88.1l.08-.74c.94,1,2.21,1.85,2.76,3A59.61,59.61,0,0,1,83,99.17a7,7,0,0,1-.34,4.27c-1.54,3.83-3.36,7.54-5.08,11.29l-1.15.33-.39.41v0a2.34,2.34,0,0,0-1.86,2.8l.45.68c-1,1.84-1.91,3.69-2.87,5.54l-.9,1.32A9.77,9.77,0,0,1,61,129.08c-6.17-1.19-8.15-6.31-7.39-12.18.36-2.77,1.46-5.44,2.33-8.51l-1.69-5.65-10.48-1.35-.91-.32Zm34.91,12.2h0c1.7-1.24,2-3.14,2.56-4.76-2.45-3.1-5.32-4.68-9.13-4.07l-.46.22c-4.37,3.06-6.32,7.53-7.35,12.55-.17-5.29,2-9.48,6-12.85l-.16-.71a8.24,8.24,0,0,0-8,2.8,19.37,19.37,0,0,0-5.25,12.7C54.38,123.5,57,127,61.21,128s8.29-1.25,10.11-5.54c1.25-2.94,2.39-5.92,3.59-8.89l.86.68.68-.88ZM79.7,94c-7.3,1.73-14.64,1.29-22.11.72-.55,1.33-1.06,2.56-1.67,4a13.61,13.61,0,0,1,9.27,1.14l-7.85,2,2.26,2.44c3.11-2.1,6-3.83,9.48-1.09,4.44-1.65,7.62.69,10.28,3.46C83.7,102.48,82.11,98.28,79.7,94ZM59,105.08l-3.27-2.65-.45.34,1.46,5.17Z"/><path class="cls-3" d="M33.08,50.79c1.52,2.94,3,5.9,4.59,8.81a12.36,12.36,0,0,0,1.89,2.5c2.51,2.68,5.77,2.15,7-1.34s1.84-6.9,2.74-10.35c.75-2.87,1.45-5.74,2.27-8.58A12.79,12.79,0,0,1,53,39.42a16.14,16.14,0,0,1,1.83,3.07c1.23,4.45,2.37,8.93,3.48,13.41.8,3.23,1.47,6.49,2.29,9.72.28,1.12.91,2.15,1.27,3.25a3.33,3.33,0,0,0,6,.57l.79,0c-1.33,3.15-4.89,3.75-6.84,1a16.82,16.82,0,0,1-2.35-5.38c-1.62-6.39-3-12.85-4.57-19.27-.37-1.53-1-3-1.49-4.5l-.55-.05A15.47,15.47,0,0,0,52,43.45c-1.16,4.8-2.25,9.61-3.43,14.41a23.91,23.91,0,0,1-1.36,3.83c-1.4,3.22-5.49,4.22-7.72,1.53s-3.81-6-5.7-9c-.53-.85-1.18-1.63-1.77-2.45v-1Z"/><path class="cls-2" d="M33.08,50.79H32v1q.12,7,.23,14c0,.25.08.49.11.73l.28,4c5.19,1.84,5.84,5.89,4.94,10.73a34.13,34.13,0,0,1-1.32,5c-1.46,4.09-1,6.16,2.37,8.92.18.15.22.46.32.7-1.64-.17-3.48-2-4-3.87a11,11,0,0,1,.51-6.35A41.18,41.18,0,0,0,37,79c.52-3.88-1.23-6.35-5-7.47-.76-.22-1.54-.41-2.32-.61l0-.63h1.14V49.65a23.08,23.08,0,0,0-3.32-.55c-4.05-.11-8.1-.14-12.15-.19l-.8-.41A9.24,9.24,0,0,1,16.84,48c2.69,0,5.38.19,8.07.36a34.38,34.38,0,0,1,5.67.58C31.51,49.11,32.25,50.13,33.08,50.79Z"/><path class="cls-2" d="M68.62,69.46l-.79,0A81.37,81.37,0,0,0,72.7,46.62c.42-5,1.24-10,1.88-15h.71c-1.22,9.51-2.29,19-3.73,28.54C71.07,63.33,69.63,66.36,68.62,69.46Z"/><path class="cls-2" d="M123.72,60.57c-1.26,3.72-2.47,7.32-3.68,10.92-1.28-1.7-.4-3.31,0-4.84a48.44,48.44,0,0,1,2-5c-2.8,0-4.62,2.07-7,2.92C115.39,62.22,120.28,59.77,123.72,60.57Z"/><path class="cls-2" d="M70.23,83.65l-4.18-.33c-3-.24-5.93-.25-8.6,1.44a5.87,5.87,0,0,0-3,4.43c-.19,1.77-.29,3.56-.44,5.34-.08.94-.2,1.88-.35,3.29-3.29-8.36,1.85-15.89,10.15-15.6,2.17.08,4.33.42,6.49.64Z"/><path class="cls-3" d="M80,84.12c4.57,1.13,7.18,8.07,5.12,13.56C84,92.64,85.32,87.08,80,84.12Z"/><path class="cls-3" d="M70.87,125.79l.9-1.32a6.56,6.56,0,0,0,5.7-3.79c.62-1.25,1.33-2.45,2.1-3.85C80.54,120.63,75.92,125.2,70.87,125.79Z"/><path class="cls-3" d="M58.16,93.19l-.66-.35c2.15-4.3,5.76-6,10.41-6v.7C63.82,88,60.31,89.43,58.16,93.19Z"/><path class="cls-3" d="M51.56,98.83v.69L40.42,97v-.8Z"/><path class="cls-2" d="M117.05,81a2.94,2.94,0,0,1-3.6,1.65A3.54,3.54,0,0,1,111,79.51l.68-.61,1.57,3,.65-.48,2.93-1.07Z"/><path class="cls-3" d="M74.64,118.93l-.45-.68,1.86-2.8v0l.39-.41,1.15-.33Z"/><path class="cls-2" d="M67.9,87.55v-.7l6.29.05v.7Z"/><path class="cls-2" d="M74.94,87l1.5.26-.09.69-1.41-.26Z"/><path class="cls-3" d="M74.94,87v.69l-.74-.06v-.7Z"/><path class="cls-3" d="M32.31,66.5c0-.24-.07-.48-.11-.73C32.24,66,32.28,66.26,32.31,66.5Z"/><path class="cls-2" d="M40.43,96.18V97l-.78-.74Z"/><path class="cls-3" d="M76.35,87.92l.09-.69.41.13c0,.24-.06.49-.08.74Z"/><path class="cls-2" d="M39.66,96.25l-.75-.37Z"/><path class="cls-3" d="M42.87,101.07l.91.32Z"/><path class="cls-3" d="M67.88,49.42c.84-8.64,1.54-17.31,4.11-25.67.59-1.91,1.48-3.73,3.42-4.63a5.63,5.63,0,0,1,7.38,2.31c2.46,4,3.36,8.56,4,13.15H86.1c-1-3.6-2-7.23-3.16-10.81A8.21,8.21,0,0,0,81.16,21c-2.17-2.4-6-2-7.23,1a55.41,55.41,0,0,0-3,10.43c-1,5.64-1.61,11.35-2.38,17Z"/><path class="cls-3" d="M14.92,49.09c.27.57.39,1.46.82,1.65,1.74.77,3.57,1.33,5.37,1.95.87.31,1.78.51,2.64.84,3.47,1.36,4.66,3.89,3.31,7.4-.9,2.35-2.06,4.6-3.24,7.19L24,69.81A1.93,1.93,0,0,1,23.34,67a72.23,72.23,0,0,0,3-6.94c.92-2.65-.05-4.6-2.66-5.6-1.67-.64-3.46-1-5.15-1.53a18.06,18.06,0,0,1-3.71-1.62c-1-.6-1.75-1.53-.41-2.63Z"/><path class="cls-3" d="M92.78,46.46a15,15,0,0,1,3.74-7.71c3-3.34,6.49-3.14,9,.75,1.4,2.15,2.07,4.79,3.07,7.2A22.78,22.78,0,0,1,107,44.48c-1.13-1.86-1.87-4.06-3.33-5.59-2.17-2.28-4.79-1.94-6.59.74a62.88,62.88,0,0,0-3.53,6.83Z"/><path class="cls-3" d="M46,42.37A58.46,58.46,0,0,1,49.14,35c1.27-2.16,3.72-2.33,6-1.8a4.35,4.35,0,0,1,3.49,3.59h-.72c-2-4-7.09-3.82-9.12.44-.79,1.65-1.32,3.42-2,5.13Z"/><path class="cls-2" d="M86.1,34.57h.71l3.43,17.36,1.85-1.37c.45,1.25-.27,1.86-1.66,2.61a14.89,14.89,0,0,1-1.63-3.34C87.81,44.77,87,39.66,86.1,34.57Z"/><path class="cls-2" d="M58.91,39.07c.26.33.66.63.75,1C61.3,47,62.93,53.85,64.49,60.75a13,13,0,0,1,0,2.79c-.8-2.73-1.7-5.44-2.36-8.21-1.22-5.14-2.3-10.32-3.42-15.48A1.92,1.92,0,0,1,58.91,39.07Z"/><path class="cls-2" d="M46,42.37h.77c-.86,4.78-1.71,9.56-2.6,14.34a4.41,4.41,0,0,1-.7,1.87c-.49.64-1.23,1.16-1.61-.19,1.19-.1,1.37-1,1.53-1.92Q44.45,50.23,45.53,44A12.91,12.91,0,0,1,46,42.37Z"/><path class="cls-2" d="M66.83,60.56l.66-7.05h.75q-.34,3.52-.7,7.05Z"/><path class="cls-3" d="M29.72,70.32l0,.63c-1.91-.21-4,.32-5.62-1.36Z"/><path class="cls-3" d="M66.83,60.56h.71c-.26,1.17-.52,2.34-.79,3.51l-1.08-.17Z"/><path class="cls-2" d="M67.88,49.42h.71c-.11,1.23-.22,2.47-.32,3.7L67.59,52Z"/><path class="cls-2" d="M92.78,46.46h.72c-.47,1.37-1,2.75-1.42,4.13C92.31,49.21,92.55,47.83,92.78,46.46Z"/><path class="cls-3" d="M67.59,52l.68,1.09,0,.38h-.75C67.52,53,67.56,52.53,67.59,52Z"/><path class="cls-2" d="M65.67,63.9l1.08.17c-.94,1-1.24,1-1.86-.11Z"/><path class="cls-2" d="M57.86,36.81h.72l0,1.51Z"/><path class="cls-2" d="M58.55,38.33l.36.75Z"/><path class="cls-2" d="M14.92,49.09l-.47-.45a.17.17,0,0,1,.14-.14l.8.41Z"/><path class="cls-2" d="M109.8,47.35l.15.32-.2.3-.49-.32Z"/><path class="cls-2" d="M64.51,63.56l.4,0,0,.41Z"/><path class="cls-2" d="M41.52,58.59l.39-.63c0,.15,0,.3,0,.44Z"/><path class="cls-6" d="M69.86,104.05c3.81-.61,6.68,1,9.13,4.07-.54,1.62-.86,3.52-2.56,4.76l.79-3.06-.3-.17-2,3.92c-1.2,3-2.34,6-3.59,8.89-1.82,4.29-5.91,6.5-10.11,5.54s-6.83-4.5-6.57-9.24a19.37,19.37,0,0,1,5.25-12.7,8.24,8.24,0,0,1,8-2.8L68,104c-3.94,3.37-6.13,7.56-6,12.85,1-5,3-9.49,7.35-12.55Z"/><path class="cls-3" d="M79.7,94c2.41,4.28,4,8.48-.34,12.72-2.66-2.77-5.84-5.11-10.28-3.46-3.44-2.74-6.37-1-9.48,1.09l-2.26-2.44,7.85-2a13.61,13.61,0,0,0-9.27-1.14c.61-1.49,1.12-2.72,1.67-4C65.06,95.29,72.4,95.73,79.7,94Z"/><path class="cls-5" d="M76.35,87.92l.42.18,3.44,4.79a31.22,31.22,0,0,1-4.27.76c-5.27.13-10.54.18-15.82.19a6.55,6.55,0,0,1-2-.65c2.15-3.76,5.66-5.2,9.74-5.64l6.3,0,.74.06Z"/><path class="cls-5" d="M59,105.08l-2.26,2.86-1.46-5.17.45-.34Z"/><path class="cls-3" d="M74.91,113.57l2-3.92.3.17-.79,3.06h0v.5l-.68.88Z"/><path class="cls-4" d="M76.05,115.45l-1.86,2.8A2.34,2.34,0,0,1,76.05,115.45Z"/><path class="cls-3" d="M68,104l-.16-.71Z"/><path class="cls-3" d="M69.86,104.05l-.46.22Z"/><path class="cls-6" d="M76.45,113.37v0Z"/><path class="cls-4" d="M76.43,115.06l-.39.41Z"/></svg>